{"title":"Eurovision Song Contest 2015 720p50fps BBC audio + No Commentary","uid":11994773,"size":11570652561,"categoryP":"video","categoryS":"hd___tv_shows","magnet":"?xt=urn:btih:b085349a2e402fd8b60f0e47e1f15ea3910ffafb&amp;dn=Eurovision+Song+Contest+2015+720p50fps+BBC+audio+%2B+No+Commentary&amp;tr=udp%3A%2F%2Ftracker.openbittorrent.com%3A80&amp;tr=udp%3A%2F%2Fopen.demonii.com%3A1337&amp;tr=udp%3A%2F%2Ftracker.coppersurfer.tk%3A6969&amp;tr=udp%3A%2F%2Fexodus.desync.com%3A6969","seeders":0,"leechers":0,"uploader":null,"files":1,"time":1433601245,"description":"If you agree that we should bring back the orchestra to the Eurovision Song Contest, please sign this petition: http://esclivemusic.com/\nThis is a song contest, not a karaoke competition!\n\n\n\nBasically I re-encoded the original feed (https://thepiratebay.mn/torrent/11958474/Eurovision_Song_Contest__Vienna_2015_(Final)_%5BFEED__HDTV%5D) down from 1080i to 720p and used a bob deinterlacer so the video has a high frame rate (50fps vs 25fps), then I got the BBC audio tracks from the transport stream posted on TPB (https://thepiratebay.mn/torrent/11956212) and synchronized it to the video.\n\nSo now there are two tracks for both the BBC audio which contains the commentary by Graham Norton and also the one which contains no commentary, one in stereo and one in DTS 5.1\n\n_____________________________________________________________________________________________\n\nVideo\nID                                       : 1\nFormat                                   : AVC\nFormat/Info                              : Advanced Video Codec\nFormat profile                           : &lt;a class=&quot;__cf_email__&quot; href=&quot;/cdn-cgi/l/email-protection&quot; data-cfemail=&quot;82caebe5eac2ceb6acb2&quot;&gt;[email&amp;#160;protected]&lt;/a&gt;&lt;script data-cfhash='f9e31' type=&quot;text/javascript&quot;&gt;\n/* &lt;![CDATA[ */!function(){try{var t=&quot;currentScript&quot;in document?document.currentScript:function(){for(var t=document.getElementsByTagName(&quot;script&quot;),e=t.length;e--;)if(t[e].getAttribute(&quot;data-cfhash&quot;))return t[e]}();if(t&amp;&amp;t.previousSibling){var e,r,n,i,c=t.previousSibling,a=c.getAttribute(&quot;data-cfemail&quot;);if(a){for(e=&quot;&quot;,r=parseInt(a.substr(0,2),16),n=2;a.length-n;n+=2)i=parseInt(a.substr(n,2),16)^r,e+=String.fromCharCode(i);e=document.createTextNode(e),c.parentNode.replaceChild(e,c)}t.parentNode.removeChild(t);}}catch(u){}}()/* ]]&gt; */&lt;/script&gt;\nFormat settings, CABAC                   : Yes\nFormat settings, ReFrames                : 5 frames\nCodec ID                                 : V_MPEG4/ISO/AVC\nDuration                                 : 3h 59mn\nBit rate                                 : 5 043 Kbps\nWidth                                    : 1 280 pixels\nHeight                                   : 720 pixels\nDisplay aspect ratio                     : 16:9\nFrame rate mode                          : Constant\nFrame rate                               : 50.000 fps\nColor space                              : YUV\nChroma subsampling                       : 4:2:0\nBit depth                                : 8 bits\nScan type                                : Progressive\nBits/(Pixel*Frame)                       : 0.109\nStream size                              : 8.42 GiB (78%)\nTitle                                    : Video\nWriting library                          : x264 core 146 r2538 121396c\nDefault                                  : Yes\nForced                                   : No\nColor primaries                          : BT.709\nTransfer characteristics                 : BT.709\nMatrix coefficients                      : BT.709\n\nAudio #1\nID                                       : 2\nFormat                                   : MPEG Audio\nFormat version                           : Version 1\nFormat profile                           : Layer 2\nCodec ID                                 : A_MPEG/L2\nCodec ID/Hint                            : MP2\nDuration                                 : 3h 59mn\nBit rate mode                            : Constant\nBit rate                                 : 256 Kbps\nChannel(s)                               : 2 channels\nSampling rate                            : 48.0 KHz\nCompression mode                         : Lossy\nDelay relative to video                  : 70ms\nStream size                              : 438 MiB (4%)\nTitle                                    : No Commentary - Stereo MP2\nDefault                                  : Yes\nForced                                   : No\n\nAudio #2\nID                                       : 3\nFormat                                   : AC-3\nFormat/Info                              : Audio Coding 3\nMode extension                           : CM (complete main)\nFormat settings, Endianness              : Big\nCodec ID                                 : A_AC3\nDuration                                 : 3h 59mn\nBit rate mode                            : Constant\nBit rate                                 : 384 Kbps\nChannel(s)                               : 6 channels\nChannel positions                        : Front: L C R, Side: L R, LFE\nSampling rate                            : 48.0 KHz\nBit depth                                : 16 bits\nCompression mode                         : Lossy\nDelay relative to video                  : 70ms\nStream size                              : 657 MiB (6%)\nTitle                                    : No Commentary - 5.1 AC3\nDefault                                  : No\nForced                                   : No\n\nAudio #3\nID                                       : 4\nFormat                                   : MPEG Audio\nFormat version                           : Version 1\nFormat profile                           : Layer 2\nCodec ID                                 : A_MPEG/L2\nCodec ID/Hint                            : MP2\nDuration                                 : 3h 59mn\nBit rate mode                            : Constant\nBit rate                                 : 256 Kbps\nChannel(s)                               : 2 channels\nSampling rate                            : 48.0 KHz\nCompression mode                         : Lossy\nDelay relative to video                  : 2s 200ms\nStream size                              : 438 MiB (4%)\nTitle                                    : English Commentary - Stereo MP2\nDefault                                  : No\nForced                                   : No\n\nAudio #4\nID                                       : 5\nFormat                                   : AC-3\nFormat/Info                              : Audio Coding 3\nMode extension                           : CM (complete main)\nFormat settings, Endianness              : Big\nCodec ID                                 : A_AC3\nDuration                                 : 3h 59mn\nBit rate mode                            : Constant\nBit rate                                 : 384 Kbps\nChannel(s)                               : 6 channels\nChannel positions                        : Front: L C R, Side: L R, LFE\nSampling rate                            : 48.0 KHz\nBit depth                                : 16 bits\nCompression mode                         : Lossy\nDelay relative to video                  : 2s 200ms\nStream size                              : 657 MiB (6%)\nTitle                                    : English Commentary - 5.1 AC3\nDefault                                  : No\nForced                                   : No\n\nMenu\n00:00:03.000                             : :Start\n00:06:19.000                             : :Building Bridges\n00:10:14.000                             : :Welcoming\n00:15:47.000                             : :Dina Garipova - &quot;What If&quot;\n00:21:27.000                             : :1. SLOVENIA\n00:25:33.000                             : :2. FRANCE\n00:29:36.000                             : :3. ISRAEL\n00:33:44.000                             : :4. ESTONIA\n00:37:41.000                             : :5. UNITED KINGDOM\n00:41:36.000                             : :6. ARMENIA\n00:45:43.000                             : :7. LITHUANIA\n00:49:47.000                             : :8. SERBIA\n00:53:42.000                             : :9. NORWAY\n00:58:50.000                             : :10. SWEDEN\n01:02:59.000                             : :11. CYPRUS\n01:07:07.000                             : :12. AUSTRALIA\n01:11:10.000                             : :13. BELGIUM\n01:15:08.000                             : :14. AUSTRIA\n01:21:09.000                             : :15. GREECE\n01:25:05.000                             : :16. MONTENEGRO\n01:29:08.000                             : :17. GERMANY\n01:33:14.000                             : :18. POLAND\n01:37:10.000                             : :19. LATVIA\n01:41:20.000                             : :20. ROMANIA\n01:45:24.000                             : :21. SPAIN\n01:49:32.000                             : :22. HUNGARY\n01:53:34.000                             : :23. GEORGIA\n01:57:43.000                             : :24. AZERBAIJAN\n02:01:49.000                             : :25. RUSSIA\n02:05:54.000                             : :26. ALBANIA\n02:10:02.000                             : :27. ITALY\n02:14:33.000                             : :Start of voting\n02:22:40.000                             : :Martin Grubinger and the Percussive Planet Ensemble\n02:40:30.000                             : :CONCHITA - You Are Unstoppable\n02:42:26.000                             : :CONCHITA - Firestorm\n02:53:34.000                             : :Voting results\n03:49:07.000                             : :And the winner is...\n03:55:10.000                             : :Song of the winner","torrent":{"xt":"urn:btih:b085349a2e402fd8b60f0e47e1f15ea3910ffafb","amp;dn":"Eurovision+Song+Contest+2015+720p50fps+BBC+audio+%2B+No+Commentary","amp;tr":["udp%3A%2F%2Ftracker.openbittorrent.com%3A80","udp%3A%2F%2Fopen.demonii.com%3A1337","udp%3A%2F%2Ftracker.coppersurfer.tk%3A6969","udp%3A%2F%2Fexodus.desync.com%3A6969"],"infoHash":"b085349a2e402fd8b60f0e47e1f15ea3910ffafb","infoHashBuffer":{"type":"Buffer","data":[176,133,52,154,46,64,47,216,182,15,14,71,225,241,94,163,145,15,250,251]},"announce":[],"urlList":[]}}